<svg width="359" height="176" xmlns="http://www.w3.org/2000/svg" overflow="hidden"><defs><clipPath id="a"><path d="M830 48h359v176H830z"/></clipPath><clipPath id="b"><path d="M830 48h359v176H830z"/></clipPath><clipPath id="c"><path d="M831 48h358v175H831z"/></clipPath><clipPath id="d"><path d="M831 48h358v175H831z"/></clipPath></defs><g clip-path="url(#a)" transform="translate(-830 -48)"><g clip-path="url(#b)"><g clip-path="url(#c)"><g clip-path="url(#d)"><path d="M1080.842 47.998c-18.64 0-36.17 3.83-51.472 10.564a48.147 48.147 0 01-38.745 0c-15.297-6.735-32.827-10.564-51.467-10.564-59.616 0-107.948 39.162-107.948 87.475 0 48.313 48.332 87.475 107.948 87.475 18.64 0 36.17-3.83 51.473-10.565a48.146 48.146 0 0138.745 0c15.296 6.74 32.832 10.565 51.472 10.565 59.617 0 107.948-39.168 107.948-87.475 0-48.307-48.338-87.475-107.954-87.475z"/><text fill="#FFF" font-family="Futura,Futura_MSFontService,sans-serif" font-weight="500" font-size="144" transform="matrix(.61334 0 0 .61171 892.753 166)">NU</text><text fill="#FFF" font-family="Futura,Futura_MSFontService,sans-serif" font-weight="500" font-size="144" transform="matrix(.61334 0 0 .61171 1032.96 166)">T</text><text fill="#FFF" font-family="Futura,Futura_MSFontService,sans-serif" font-weight="500" font-size="144" transform="matrix(.61334 0 0 .61171 1075.61 166)">S</text><text font-family="Futura,Futura_MSFontService,sans-serif" font-weight="500" font-size="36" transform="matrix(.61334 0 0 .61171 851.377 260)">Ni</text><text font-family="Futura,Futura_MSFontService,sans-serif" font-weight="500" font-size="36" transform="matrix(.61334 0 0 .61171 875.549 260)">c</text><text font-family="Futura,Futura_MSFontService,sans-serif" font-weight="500" font-size="36" transform="matrix(.61334 0 0 .61171 886.657 260)">he.</text><text font-family="Futura,Futura_MSFontService,sans-serif" font-weight="500" font-size="36" transform="matrix(.61334 0 0 .61171 924.659 260)">U</text><text font-family="Futura,Futura_MSFontService,sans-serif" font-weight="500" font-size="36" transform="matrix(.61334 0 0 .61171 941.146 260)">ni</text><text font-family="Futura,Futura_MSFontService,sans-serif" font-weight="500" font-size="36" transform="matrix(.61334 0 0 .61171 958.774 260)">q</text><text font-family="Futura,Futura_MSFontService,sans-serif" font-weight="500" font-size="36" transform="matrix(.61334 0 0 .61171 972.279 260)">ue. Th</text><text font-family="Futura,Futura_MSFontService,sans-serif" font-weight="500" font-size="36" transform="matrix(.61334 0 0 .61171 1032.99 260)">r</text><text font-family="Futura,Futura_MSFontService,sans-serif" font-weight="500" font-size="36" transform="matrix(.61334 0 0 .61171 1041.6 260)">i</text><text font-family="Futura,Futura_MSFontService,sans-serif" font-weight="500" font-size="36" transform="matrix(.61334 0 0 .61171 1047.11 260)">v</text><text font-family="Futura,Futura_MSFontService,sans-serif" font-weight="500" font-size="36" transform="matrix(.61334 0 0 .61171 1057.83 260)">e. Sp</text><text font-family="Futura,Futura_MSFontService,sans-serif" font-weight="500" font-size="36" transform="matrix(.61334 0 0 .61171 1109.86 260)">o</text><text font-family="Futura,Futura_MSFontService,sans-serif" font-weight="500" font-size="36" transform="matrix(.61334 0 0 .61171 1123.28 260)">tlight.</text></g></g></g></g></svg>