<svg width="359" height="176" xmlns="http://www.w3.org/2000/svg" xmlns:xlink="http://www.w3.org/1999/xlink" xml:space="preserve" overflow="hidden"><defs><clipPath id="clip0"><rect x="830" y="48" width="359" height="176"/></clipPath><clipPath id="clip1"><rect x="830" y="48" width="359" height="176"/></clipPath><clipPath id="clip2"><rect x="831" y="48" width="358" height="175"/></clipPath><clipPath id="clip3"><rect x="831" y="48" width="358" height="175"/></clipPath></defs><g clip-path="url(#clip0)" transform="translate(-830 -48)"><g clip-path="url(#clip1)"><g clip-path="url(#clip2)"><g clip-path="url(#clip3)"><g><path d="M248.967 0C230.377 0 212.894 3.82931 197.632 10.5643 185.349 15.9901 171.273 15.9901 158.99 10.5643 143.734 3.82931 126.251 0 107.661 0 48.2029 0 0 39.1618 0 87.4748 0 135.788 48.2029 174.95 107.661 174.95 126.251 174.95 143.734 171.12 158.996 164.385 171.279 158.959 185.355 158.959 197.638 164.385 212.894 171.126 230.383 174.95 248.973 174.95 308.431 174.95 356.634 135.782 356.634 87.4748 356.634 39.1679 308.425 0 248.967 0Z" fill="#000000" fill-rule="nonzero" fill-opacity="1" transform="matrix(1.00267 0 0 1 831.21 47.9978)"/><text fill="#FFFFFF" fill-opacity="1" font-family="Futura,Futura_MSFontService,sans-serif" font-style="normal" font-variant="normal" font-weight="500" font-stretch="normal" font-size="144" text-anchor="start" direction="ltr" writing-mode="lr-tb" unicode-bidi="normal" text-decoration="none" transform="matrix(0.613344 0 0 0.611712 892.753 166)">NU</text><text fill="#FFFFFF" fill-opacity="1" font-family="Futura,Futura_MSFontService,sans-serif" font-style="normal" font-variant="normal" font-weight="500" font-stretch="normal" font-size="144" text-anchor="start" direction="ltr" writing-mode="lr-tb" unicode-bidi="normal" text-decoration="none" transform="matrix(0.613344 0 0 0.611712 1032.96 166)">T</text><text fill="#FFFFFF" fill-opacity="1" font-family="Futura,Futura_MSFontService,sans-serif" font-style="normal" font-variant="normal" font-weight="500" font-stretch="normal" font-size="144" text-anchor="start" direction="ltr" writing-mode="lr-tb" unicode-bidi="normal" text-decoration="none" transform="matrix(0.613344 0 0 0.611712 1075.61 166)">S</text><text fill="#000000" fill-opacity="1" font-family="Futura,Futura_MSFontService,sans-serif" font-style="normal" font-variant="normal" font-weight="500" font-stretch="normal" font-size="36" text-anchor="start" direction="ltr" writing-mode="lr-tb" unicode-bidi="normal" text-decoration="none" transform="matrix(0.613344 0 0 0.611712 851.377 260)">Ni</text><text fill="#000000" fill-opacity="1" font-family="Futura,Futura_MSFontService,sans-serif" font-style="normal" font-variant="normal" font-weight="500" font-stretch="normal" font-size="36" text-anchor="start" direction="ltr" writing-mode="lr-tb" unicode-bidi="normal" text-decoration="none" transform="matrix(0.613344 0 0 0.611712 875.549 260)">c</text><text fill="#000000" fill-opacity="1" font-family="Futura,Futura_MSFontService,sans-serif" font-style="normal" font-variant="normal" font-weight="500" font-stretch="normal" font-size="36" text-anchor="start" direction="ltr" writing-mode="lr-tb" unicode-bidi="normal" text-decoration="none" transform="matrix(0.613344 0 0 0.611712 886.657 260)">he. </text><text fill="#000000" fill-opacity="1" font-family="Futura,Futura_MSFontService,sans-serif" font-style="normal" font-variant="normal" font-weight="500" font-stretch="normal" font-size="36" text-anchor="start" direction="ltr" writing-mode="lr-tb" unicode-bidi="normal" text-decoration="none" transform="matrix(0.613344 0 0 0.611712 924.659 260)">U</text><text fill="#000000" fill-opacity="1" font-family="Futura,Futura_MSFontService,sans-serif" font-style="normal" font-variant="normal" font-weight="500" font-stretch="normal" font-size="36" text-anchor="start" direction="ltr" writing-mode="lr-tb" unicode-bidi="normal" text-decoration="none" transform="matrix(0.613344 0 0 0.611712 941.146 260)">ni</text><text fill="#000000" fill-opacity="1" font-family="Futura,Futura_MSFontService,sans-serif" font-style="normal" font-variant="normal" font-weight="500" font-stretch="normal" font-size="36" text-anchor="start" direction="ltr" writing-mode="lr-tb" unicode-bidi="normal" text-decoration="none" transform="matrix(0.613344 0 0 0.611712 958.774 260)">q</text><text fill="#000000" fill-opacity="1" font-family="Futura,Futura_MSFontService,sans-serif" font-style="normal" font-variant="normal" font-weight="500" font-stretch="normal" font-size="36" text-anchor="start" direction="ltr" writing-mode="lr-tb" unicode-bidi="normal" text-decoration="none" transform="matrix(0.613344 0 0 0.611712 972.279 260)">ue. Th</text><text fill="#000000" fill-opacity="1" font-family="Futura,Futura_MSFontService,sans-serif" font-style="normal" font-variant="normal" font-weight="500" font-stretch="normal" font-size="36" text-anchor="start" direction="ltr" writing-mode="lr-tb" unicode-bidi="normal" text-decoration="none" transform="matrix(0.613344 0 0 0.611712 1032.99 260)">r</text><text fill="#000000" fill-opacity="1" font-family="Futura,Futura_MSFontService,sans-serif" font-style="normal" font-variant="normal" font-weight="500" font-stretch="normal" font-size="36" text-anchor="start" direction="ltr" writing-mode="lr-tb" unicode-bidi="normal" text-decoration="none" transform="matrix(0.613344 0 0 0.611712 1041.6 260)">i</text><text fill="#000000" fill-opacity="1" font-family="Futura,Futura_MSFontService,sans-serif" font-style="normal" font-variant="normal" font-weight="500" font-stretch="normal" font-size="36" text-anchor="start" direction="ltr" writing-mode="lr-tb" unicode-bidi="normal" text-decoration="none" transform="matrix(0.613344 0 0 0.611712 1047.11 260)">v</text><text fill="#000000" fill-opacity="1" font-family="Futura,Futura_MSFontService,sans-serif" font-style="normal" font-variant="normal" font-weight="500" font-stretch="normal" font-size="36" text-anchor="start" direction="ltr" writing-mode="lr-tb" unicode-bidi="normal" text-decoration="none" transform="matrix(0.613344 0 0 0.611712 1057.83 260)">e. Sp</text><text fill="#000000" fill-opacity="1" font-family="Futura,Futura_MSFontService,sans-serif" font-style="normal" font-variant="normal" font-weight="500" font-stretch="normal" font-size="36" text-anchor="start" direction="ltr" writing-mode="lr-tb" unicode-bidi="normal" text-decoration="none" transform="matrix(0.613344 0 0 0.611712 1109.86 260)">o</text><text fill="#000000" fill-opacity="1" font-family="Futura,Futura_MSFontService,sans-serif" font-style="normal" font-variant="normal" font-weight="500" font-stretch="normal" font-size="36" text-anchor="start" direction="ltr" writing-mode="lr-tb" unicode-bidi="normal" text-decoration="none" transform="matrix(0.613344 0 0 0.611712 1123.28 260)">tlight.</text></g></g></g></g></g></svg>